<?xml version="1.0" encoding="utf-8"?>
<!-- Generator: Adobe Illustrator 25.0.0, SVG Export Plug-In . SVG Version: 6.00 Build 0)  -->
<svg version="1.1" id="Layer_1" xmlns="http://www.w3.org/2000/svg" xmlns:xlink="http://www.w3.org/1999/xlink" x="0px" y="0px"
	 viewBox="0 0 3840 2400" style="enable-background:new 0 0 3840 2400;" xml:space="preserve">
<style type="text/css">
	.st0{fill:#FAFBFA;stroke:#231F20;}
	.st1{fill:#DD2225;stroke:#231F20;}
	.st2{stroke:#231F20;}
	.st3{fill:#DC2428;stroke:#231F20;}
	.st4{fill:#898989;stroke:#231F20;}
	.st5{fill:#646564;stroke:#231F20;}
	.st6{fill:#4C4D4E;stroke:#231F20;}
	.st7{fill:#707172;stroke:#231F20;}
	.st8{fill:#7E7E7E;stroke:#231F20;}
	.st9{fill:#FEFDFE;stroke:#231F20;}
	.st10{fill:#FCFCFA;stroke:#231F20;}
</style>
<g>
	<g>
		<ellipse class="st0" cx="1920" cy="1198.4" rx="2715.3" ry="1697.1"/>
		<path class="st1" d="M2850.1,1100.4c0,110,0,220,0,330c0,6.3,0,12.7,0.3,19c0.3,5.2-2.1,7.3-7.1,7.2c-3.3-0.1-6.7,0-10,0.1
			c-23.7,0.3-47.3-1-71,0.9c-9.5,0.8-10.5-0.6-10.5-10.9c-0.1-110-0.1-220-0.2-329.9c0-67.3-0.2-134.6-0.2-202c0-24,0.5-48,0.8-72
			c0-2.3,0.3-4.7,0.1-7c-0.2-3.1,1.5-7.2-2.3-9c-4.8-2.3-7.4,1.9-9.9,4.8c-12.6,14.6-25.2,29.4-39,42.9c-17.8,17.5-34.6,36-52,53.9
			c-11.6,11.9-22.7,24.4-34.4,36.2c-12.9,13-24.7,27.1-38.5,39.1c-1.9,1.7-4.6,3.3-3.1,6.6c1.3,2.8,3.8,3.6,6.6,3.6
			c6.7,0,13.3-0.2,20,0c7.2,0.2,7.8,0.9,9,7.9c0.3,1.6,0.5,3.3,0.6,5c0.2,16,0.5,32,0.4,48c0,8.1-1.2,9.5-9.3,9.3
			c-15-0.2-30,0-45-0.8c-13.6-0.8-27.3-0.5-41,0.2c-11.6,0.7-23.3,0.6-35,0.5c-8.3-0.1-9.9-1.8-9.9-10.2c0-16.7,1.4-33.4,0.3-50
			c-0.9-13,2.4-22.7,12.1-31.6c7.8-7.2,15.6-14.5,22.9-22.3c43.1-45.9,87.8-90.3,130.2-136.8c16.4-18,34-34.8,50.9-52.3
			c9.7-10.1,19.4-20.2,28.5-30.8c6.2-7.2,12.9-10.1,22.6-9.6c20.3,1.1,40.6,0.3,60.9,1.3c12.9,0.6,26,0.6,39-0.6
			c10.3-0.9,13,1.9,13,12.4c0.1,51.3,0.2,102.6,0.2,154c0,64.3,0,128.6,0,193C2850.2,1100.4,2850.2,1100.4,2850.1,1100.4z"/>
		<path class="st2" d="M1858.2,1319.4c0-42.3,0-84.7,0-127c0-9.4,0.7-10.4,10-10.6c10-0.2,20,0,30,0c69,0,138,0,207,0
			c13.4,0,26.5,1.4,39.7,4.1c23.8,4.9,46.8,27,50,55.8c1.9,17.6,2.6,35.2-0.7,52.8c-4.2,22.8-17.4,37.5-39.5,44.2
			c-1.9,0.6-4.1,0.9-4,3.5c0.1,2.1,2.3,2.3,3.7,2.7c5.8,1.5,11.5,2.8,16.9,5.9c11.9,6.7,18.5,16.8,21.2,29.8
			c2,9.5,1.7,19.2,1.6,28.9c0,12.3-0.1,24.7-0.4,37c-0.2,8.7-0.8,9.4-9.1,9.4c-23,0.1-46,0.1-69-0.1c-8.3-0.1-8.8-0.7-9-9.4
			c-0.2-11.7-0.9-23.4,0-35c1.4-18.4-13.7-29-28.8-30.6c-4.3-0.4-8.7-0.5-13-0.5c-35-0.1-70,0-105-0.1c-1,0-2,0-3,0
			c-7.6,0.5-8.5,1.2-8.6,9c-0.1,14.7,0,29.3,0,44c0,4,0,8-0.1,12c-0.2,10.7-0.4,11-11.5,11.1c-22.7,0.1-45.3,0.1-68,0
			c-10.3-0.1-10.5-0.4-10.5-10.9c0-42,0-84,0-126C1858.3,1319.4,1858.3,1319.4,1858.2,1319.4z"/>
		<path class="st3" d="M2705.9,1220.5c-0.3,47.9,0.9,118.9-0.2,189.9c-0.2,12,0.6,24,0.7,36c0.1,10-0.8,10.7-10.8,10.7
			c-9-0.1-18,0-27-0.2c-7-0.2-8.2-1.4-8.2-8.3c0.1-8,1-16,1-24c-0.1-18-1-36-1-54c0-19.3,1.2-38.6,0.9-58c-0.5-28.7-1.1-57.3-0.8-86
			c0.2-17.3,0.8-34.6,0.9-52c0.1-25.3-1.5-50.6-0.9-76c0.4-17.6,0.9-35.3,0.9-53c0-19.7-1.4-39.3-1.3-59c0.1-6.9,2.1-11.8,7-16.6
			c10.2-10,19.8-20.7,29.5-31.1c1.7-1.9,3.5-3.2,6-2.3c2.7,0.9,3.1,3.2,3.2,5.6c0.1,3.7,0.1,7.3,0.1,11
			C2706,1034.8,2705.9,1116.1,2705.9,1220.5z"/>
		<path class="st4" d="M2236.3,1306.9c0-45.6,0-78.3,0-110.9c0-2.3-0.1-4.7,0.1-7c0.5-6.6,2-8.2,8.5-8.6c4-0.3,8-0.1,12-0.1
			c20,0,40-0.2,60-0.1c10.5,0,11.5,1,11.5,11.5c0.1,23,0,46,0,69c0,2.7,0,5.3,0.1,8c0.1,3.6,2,5.7,5.6,5.6c9.3,0,18.7-0.2,28-0.5
			c3.2-0.1,5.3-2.6,7.5-4.6c12.4-11.6,24.5-23.5,37.2-34.7c18.2-16.1,36.4-32.2,53.4-49.6c3.6-3.7,7.5-4.9,12.5-4.9
			c34.3,0.1,68.7,0,103,0.1c2.7,0,5.4,0,7.9,0.7c5.1,1.3,6,5.5,1.7,8.7c-29.8,22.5-55.6,49.6-84.3,73.3
			c-15.1,12.5-29.4,26-43.8,39.3c-7.5,7-9.3,6.9,0,14.9c27.2,23.1,52.6,48.1,78.8,72.2c19.3,17.8,38.6,35.8,57.9,53.7
			c2.9,2.7,5.8,5.5,8.3,8.7c2.4,3.1,1.3,5.8-2.6,6.5c-2.9,0.5-6,0.5-9,0.5c-34.3,0-68.7-0.2-103,0c-6.5,0-11.2-2-15.9-6.6
			c-15.6-15.5-31.2-31-47.5-45.7c-16.8-15.2-32.9-31.1-48.8-47.1c-7.2-7.3-15.1-12.7-26.2-11.2c-3.9,0.5-7.9-0.5-11.9-0.8
			c-7.8-0.7-8.9,0.1-8.9,7.8c-0.1,15.3-0.1,30.7,0,46c0,15.3,0.1,30.7,0.1,46c-0.1,10.4-0.9,11.3-11.6,11.3c-22.7,0.1-45.3,0.1-68,0
			c-10.6,0-11.2-0.7-11.3-11.5C2237,1395.9,2235.7,1345,2236.3,1306.9z"/>
		<path class="st5" d="M1630.5,1180.6c15.3,0,30.7,0.4,46-0.2c8.1-0.3,12.8,2.7,16.6,9.7c15.3,28.4,31,56.6,46.6,84.8
			c21.7,39,43.4,77.8,65.1,116.8c9.5,17.1,19,34.3,28.4,51.4c0.8,1.5,1.5,3,2.2,4.5c3.5,8.1,2.7,9.6-5.7,9.6c-27,0.1-54-0.2-80.9,0
			c-5.5,0-8.6-2.3-10.9-6.9c-4.7-9.6-10-18.8-14.2-28.6c-3.8-8.6-9.2-12.1-19.1-12c-45.6,0.5-91.3,0.2-136.9,0.2
			c-4,0-8.2,0.6-12-0.3c-9-2.1-13.4,2.4-17,9.8c-5.2,10.8-11.1,21.2-16.4,31.9c-2,4.1-4.7,5.8-9.3,6c-27,0.9-54,0.4-80.9,0
			c-8.3-0.1-9.5-2.4-5.8-9.9c12.1-24,24.6-47.8,38.3-71c6.6-11.2,12.3-22.8,18.6-34.1c9.4-17.2,18.9-34.3,28.4-51.5
			c9.8-17.7,19.7-35.4,29.6-53.1c9.2-16.5,18.7-33,27.7-49.6c3.1-5.7,7.3-7.8,13.7-7.7C1598.5,1180.8,1614.5,1180.5,1630.5,1180.6
			C1630.5,1180.6,1630.5,1180.6,1630.5,1180.6z"/>
		<path class="st6" d="M1304.1,1274.6c-6.7,12.9-13.3,25.9-20.2,38.7c-8.3,15.4-17.1,30.7-25.5,46.1c-15.9,29.5-31.9,59-47.5,88.7
			c-3.3,6.4-7.5,9.2-14.8,9c-16-0.4-32-0.3-47.9,0c-6.1,0.1-9.7-2.2-12.6-7.6c-13.5-25.5-27.4-50.9-41.2-76.2
			c-11.4-21-23-41.9-34.3-62.9c-8-14.9-15.7-30-23.5-45c-1.4-2.6-2.6-5.4-5.4-7.9c-2.8,3.5-1.8,7.5-1.8,11.1
			c0,39.6,0.1,79.2,0.2,118.8c0.1,19.6,0.2,39.3,0.2,58.9c0,3.7,1.7,8.4-3.8,10.1c-24.2,2-48.5,0.4-72.7,0.8c-4,0.1-6.1-2.2-6.3-6.2
			c-0.1-1.7,0-3.3,0-5c0-84.9,0-169.7,0-254.6c0-2.3-0.5-4.7,0.7-6.8c4.1-1.2,4,2.3,4.5,4.5c1,4.2,0.6,8.6,0.6,13
			c0,77.6,0,155.3,0,232.9c0,16,0.4,16.4,16,16.4c14.3,0,28.7-0.2,43,0.1c8.1,0.2,11.3-3.2,11.3-11.3c-0.1-51.6,0.1-103.3-0.2-154.9
			c-0.1-8.9-3.2-17.8-0.8-26.8c1-3.8,1.3-8.4,6.2-9.3c5.1-0.9,7.9,2.8,10.2,6.6c7.8,13.2,14.2,27.2,21.4,40.7
			c24.8,46.8,51.3,92.7,75.4,139.8c6.1,11.8,14,16.6,26.9,15.2c10.9-1.2,21.8-2.7,32.9-2.3c7.7,0.3,10.8-5.3,13.8-11.2
			c18.1-35.3,37.2-70,56.4-104.7c9.5-17.2,18.4-34.7,28.2-51.8c2.6-4.5,4.1-10,10.1-11.7C1305.4,1271.3,1305.1,1272.9,1304.1,1274.6
			z"/>
		<path class="st7" d="M1304.1,1274.6c-0.2-1.5-0.3-3-0.5-4.6c-1.9-7.1,3-10.8,7.5-14.7c5.6-2.8,8.1,0.2,9.2,5.1
			c0.8,3.6,0.5,7.3,0.5,10.9c0,50.5,0,101,0.1,151.5c0.3,4,0,8.1,0,12.1c0.2,5.5-1.6,11.1,1.2,16.4c0.8,0.6,1.6,1.2,2.5,1.7
			c21.1,1.3,42.1,0.2,63.2,0.5c2.8,0,5.2-0.6,7-2.8c2.7-4.2,2.1-9,2.1-13.6c0-78.3,0.1-156.6,0-234.8c0-14-0.8-14.8-14.6-14.8
			c-33.6-0.1-67.3,0.2-100.9-0.2c-9.7-0.1-15.2,3.6-19.6,12c-9.7,18.6-19.4,37.2-29.7,55.5c-2.3,4-4.2,8.5-9.2,10
			c-2.5-1-1.9-2.7-0.9-4.5c11.6-21.6,23.2-43.3,34.8-64.9c0.3-0.6,0.6-1.2,0.9-1.8c3.7-9.9,10.3-13.7,21.4-13.5
			c37.3,0.7,74.6,0.2,111.9,0.2c2.3,0,4.7,0,7,0.2c3.9,0.4,6,2.6,6.1,6.5c0.1,3.3,0.2,6.7,0.2,10c-0.1,82.6-0.2,165.2-0.2,247.8
			c0,11.9-1,13-13.2,13c-21.6,0.1-43.3,0-65-0.1c-9.7-0.1-9.9-0.4-10.9-10c-0.9-8.7,0.3-17.3,0.3-25.9c0.2-50.3,0.3-100.6,0.5-150.9
			c0-3.2,0.3-6.5-1.1-10C1309,1264.5,1309.2,1271.6,1304.1,1274.6z"/>
		<path class="st8" d="M1222,1260.3c0.1,1.6,0.3,3.2,0.4,4.7c1.4,5.8-2.2,10.3-4.6,14.8c-12.2,22.2-24,44.6-36.3,66.7
			c-2.1,3.8-3.8,8.4-8.9,8.6c-6,0.3-6.9-5.4-9-9.3c-26.7-49.9-53.7-99.7-80.3-149.7c-4.9-9.3-12.6-10.7-21.6-11.1
			c-25.3-0.9-50.5,3.1-75.9,2.1c-12-0.5-23.8-2.1-35.7-2.7c-3.2,2.1-2.1,5.4-2.1,8.2c0,84.5,0,168.9,0.1,253.4
			c0,9.6,0.5,10.1,10.2,10.1c22.6,0.2,45.2,0.2,67.8,0.3c-2.5,2.2-5.7,1.6-8.6,1.6c-20.3,0.1-40.7,0.2-61,0.2
			c-10.1,0-10.8-0.9-10.9-10.8c-0.1-85.3-0.2-170.6-0.2-255.9c0-10.3,1-11.3,11.6-11.3c38,0,76,0.2,114,0.1c6.6,0,11.1,1.8,14.4,8.1
			c9,17.4,18.6,34.5,28.2,51.7c17.6,31.7,33.5,64.3,51.9,95.6c2.3,3.9,3.2,8.8,7.7,12.8C1189.7,1318.6,1205.8,1289.5,1222,1260.3z"
			/>
		<path class="st9" d="M2020,1248.5c20.3,0,40.6-0.2,60.9,0.1c11.8,0.2,21.3,4.9,25.8,16.6c2.4,6.3,1.7,13.1,1.7,19.8
			c0,18.5-12.8,27.4-28.5,27.6c-40.6,0.4-81.2,0.4-121.8,0.5c-8.1,0-9.5-1.4-9.5-9.1c-0.1-15.3-0.2-30.6-0.1-45.9
			c0-8.7,0.9-9.7,9.7-9.8c20.6-0.1,41.3,0,61.9,0C2020,1248.3,2020,1248.4,2020,1248.5z"/>
		<path class="st2" d="M2595.9,1454.5c-2.6,0.1-5.3,0.4-7.9,0.4c-33,0-66-0.1-99,0.1c-6.5,0.1-11.3-1.8-16-6.3
			c-31.3-30.4-62.8-60.6-94.2-90.9c-1.4-1.4-3-2.7-4.3-4.2c-6.5-7.5-14.5-11.1-24.7-10c-4.9,0.5-9.9-0.8-14.9-0.8
			c-8.9-0.1-10.6,1.5-10.6,10.4c-0.2,19-0.1,38-0.1,57c0,12.3,0.1,24.7,0,37c-0.1,6.9-0.7,7.5-7.5,7.5c-23,0.1-46,0.2-69,0.1
			c-6.7,0-7-0.5-7.1-7.7c-0.1-12.3,0-24.7,0-37c0-70.6-0.1-141.3-0.1-211.9c0-1.7,0-3.3,0-5c0.1-9.8,0.2-10,10.2-10.1
			c21.3-0.2,42.7-0.2,64-0.2c9.1,0,9.6,0.3,9.6,9.7c0.1,24.3,0,48.6,0.1,73c0,11.6,1.1,12.6,12.5,12.7c3.7,0,7.4-0.6,11,0
			c13.3,2.1,23-3.9,31.7-12.8c26.4-26.9,56.2-50,82.3-77.2c3.7-3.9,7.8-5.4,13.3-5.4c32.3,0.2,64.6,0,97,0.1c2.9,0,6-0.7,8.4,1.7
			c0.4,2.6-1.4,3.8-2.9,5.1c-38,33.3-75.7,67.1-113,101.2c-4.7,4.3-9.7,8.1-14.3,12.4c-4.5,4.3-4.5,7.3-0.4,12
			c1.8,2,3.8,3.7,5.9,5.4c23.7,19.4,45.2,41.4,67.7,62.1c19.3,17.9,39.5,34.8,58,53.6c5.3,5.4,10.5,10.8,15.8,16.1
			C2596.7,1453.2,2596.3,1453.8,2595.9,1454.5z"/>
		<path class="st2" d="M1428.2,1454.1c2.8-10.6,7.9-18.5,12.2-26.5c15.4-29.1,31.4-57.9,47.3-86.7c13.2-23.9,26.5-47.6,39.7-71.5
			c14.4-25.9,28.7-51.7,43-77.6c3-5.4,6.8-7.9,13.5-7.8c31,0.4,62,0.4,93,0.1c6.6-0.1,10.1,2.4,13.2,8.1
			c21.5,39,43.3,77.9,64.9,116.8c11.8,21.2,23.4,42.5,35.2,63.8c12.6,22.7,25.2,45.3,37.8,68c2.1,3.7,4.4,7.4,5.1,11.5
			c-2,2.7-4.5,1.8-6.6,1.8c-25,0-50-0.3-75,0.1c-6.1,0.1-9.3-2.5-11.7-7.3c-4.3-8.6-8.8-17.1-12.9-25.8c-1.1-2.4-2.7-4.6-3.8-6.9
			c-3.1-7-8.5-8.1-15.4-8.4c-46-2.1-92-0.6-137.9-1c-2.7,0-5.3,0-8,0c-22.6,0-18.6,0.3-29.3,18.9c-4.8,8.4-8.8,17.1-13.1,25.8
			c-1.4,2.9-3.2,4.7-6.8,4.7C1485,1454.1,1457.4,1454.1,1428.2,1454.1z"/>
		<path class="st2" d="M950.1,1184.5c3.4-1.9,7.1-1.6,10.7-1.4c32.6,2.1,65.2-0.2,97.8,0c20.3,0.1,20.2,0,30.1,18.4
			c25.2,46.8,50.5,93.5,75.7,140.3c1.3,2.3,2.3,4.8,3.3,7.2c0.9,2.2,1.7,4.6,4.6,4.5c2.6-0.1,3.9-2.2,4.9-4.4
			c5.3-11.4,11.9-22.2,17.9-33.3c9.2-16.9,18.1-33.9,27.1-50.9c13.8-21.6,24.4-44.9,37-67.2c0.7-1.2,1.4-2.3,1.8-3.6
			c2.9-8,8.4-10.5,16.9-10.4c37,0.4,74,0.1,111,0c10.2,0,10.8,0.4,10.8,10.6c0,79.6-0.1,159.3-0.3,238.9c0,6.9,1.8,14-1.6,20.7
			c-5.7,2.6-11.7,1.3-17.5,1.2c-20.1-0.4-40.2,1.6-60.3-1l0.1,0.1c-2.9-5.8,0.4-12.3-1.9-18.2c0-3.8,0-7.6,0-11.5
			c1.3-2.8,0.7-5.9,0.7-8.8c0-50.1,0-100.2,0-150.4c0-1.7,0-3.3,0-5c0-2.5-0.4-4.9-2.9-5.8c-3.3-1.2-4.6,1.6-6,3.8
			c-2.4,3.7-5.7,7-6.5,11.6c-12.3,20-22.6,41.2-34,61.7c-13,23.4-25.8,47-38.5,70.6c-7.4,13.7-14.9,27.4-21.8,41.4
			c-3.2,6.4-7.2,9.3-14.7,9.2c-14.3-0.3-28.6,0.4-42.9,1.1c-6.8,0.3-11-2.1-14.3-8.3c-13.6-25.9-27.5-51.5-41.4-77.2
			c-11.1-20.4-22.6-40.6-33.6-61.1c-7.9-14.6-15.3-29.4-22.9-44.1c-1.4-2.7-2.7-5.4-4.2-8c-1.5-2.6-3.2-5.6-6.8-4.7
			c-3.4,0.8-2.6,4.2-3.3,6.6c-1.4,4.6-1.4,9.3-0.8,13.9c2.2,16.6,1.1,33.3,1.3,49.9c0.3,40.6,0.2,81.3,0.2,121.9c0,1,0.1,2,0,3
			c-0.3,7.1-0.8,7.6-8.3,7.9c-3.3,0.1-6.7,0.1-10,0.1c-15.7,0-31.3,0.1-47,0c-10.3,0-10.5-0.2-10.5-10.8
			c-0.1-70-0.1-139.9-0.1-209.9C950,1217.1,950.1,1200.8,950.1,1184.5z"/>
		<path class="st6" d="M1310.1,1258.4c0-3.6,1.8-6,5.3-5.8c3.9,0.2,4.2,3.6,4.3,6.7c0.1,1.7,0,3.3,0,5c0,50.2-0.1,100.4-0.1,150.7
			c0,3.3,0.7,6.7-1.4,9.7c-0.1-25.5-0.3-51.1-0.4-76.6c0-26.9,0-53.7,0.1-80.6c0-2,0.1-4,0-6
			C1317.4,1255.1,1316.7,1254.8,1310.1,1258.4z"/>
		<path class="st6" d="M1320.1,1454.2c25.9,0,51.9-0.1,77.8-0.1c-1.2,2-3.3,2-5.2,2c-22.4,0-44.8,0-67.2,0
			C1323.4,1456.1,1321.4,1456.1,1320.1,1454.2z"/>
		<path class="st6" d="M1318.3,1436.1c2.9,5.8,0.4,12.2,1.9,18.2C1315.6,1448.6,1318.5,1442.2,1318.3,1436.1z"/>
		<path class="st10" d="M1630.6,1343.9c-14.3,0-28.6,0.1-42.9,0c-7.9-0.1-8.9-2-5.5-8.7c13.1-25.4,26-50.8,39.1-76.1
			c1.7-3.2,3.7-6.3,5.6-9.3c2.6-4,4.7-4,7.1,0.4c6.1,11,12,22.1,17.8,33.3c6.8,13.2,13.2,26.7,20.3,39.8c2.5,4.6,4,9.8,7.2,14.2
			c2.6,3.6,1,6.1-3.9,6.3c-7.6,0.3-15.3,0.1-23,0.1c-7.3,0-14.6,0-22,0C1630.6,1343.8,1630.6,1343.8,1630.6,1343.9z"/>
	</g>
	<g>
		<rect x="945.5" y="1485.7" class="st2" width="1904.9" height="79.7"/>
	</g>
</g>
</svg>
